# This file uses centimeters as units for non-parametric coordinates.

v 21.481642 -5.969584 -0.070937
v 22.366064 -5.969584 -0.070937
v 22.366064 -3.902911 -0.070937
v 21.481642 -3.902911 -0.070937
vt 0.000000 0.000000
vt 0.999766 0.000000
vt 0.999766 1.000000
vt 0.000000 1.000000
vn 0.000000 -0.000000 1.000000
vn 0.000000 -0.000000 1.000000
vn 0.000000 -0.000000 1.000000
vn 0.000000 -0.000000 1.000000
g glass
f 1/1/1 2/2/2 3/3/3 4/4/4
v 21.501360 -3.802615 -0.042995
v 21.501360 -3.802615 0.001815
v 21.410109 -3.802615 0.001815
v 21.410109 -3.802615 -0.042995
v 22.349894 -3.802615 0.001815
v 22.349894 -3.802615 -0.042995
v 22.441399 -3.802615 -0.042995
v 22.441399 -3.802615 0.001815
v 21.501360 -3.802615 -0.042995
v 21.501360 -3.802615 0.111011
v 21.501360 -6.073778 0.111011
v 21.501360 -6.073778 -0.042995
v 21.410109 -3.802615 -0.042995
v 21.410109 -3.802615 0.111011
v 21.410109 -6.073778 0.111011
v 22.349894 -6.073778 -0.042995
v 22.349894 -6.073778 0.111011
v 22.349894 -3.802615 0.111011
v 22.349894 -3.802615 -0.042995
v 22.441399 -3.802615 0.111011
v 22.441399 -3.802615 -0.042995
v 22.441399 -6.073778 0.111011
v 21.501568 -6.073786 0.131841
v 22.349684 -6.073786 0.131841
v 22.349684 -5.939356 0.131841
v 21.501568 -5.939356 0.131841
v 22.349684 -5.939356 -0.026397
v 21.501568 -5.939356 -0.026397
v 21.501568 -6.073786 -0.026397
v 22.349684 -6.073786 -0.026397
v 21.501568 -3.923667 0.118797
v 22.349684 -3.923667 0.118797
v 22.349684 -3.802326 0.118797
v 21.501568 -3.802326 0.118797
v 22.349684 -3.802326 -0.039097
v 21.501568 -3.802326 -0.039097
v 21.501568 -3.923667 -0.039097
v 22.349684 -3.923667 -0.039097
v 21.544979 -3.873719 -0.063478
v 21.544979 -3.873719 -0.023275
v 21.463118 -3.873719 -0.023275
v 21.463118 -3.873719 -0.063478
v 22.306293 -3.873719 -0.023275
v 22.306293 -3.873719 -0.063478
v 22.388391 -3.873719 -0.063478
v 22.388391 -3.873719 -0.023275
v 21.544979 -3.873719 -0.063478
v 21.544979 -3.873719 -0.023275
v 21.544979 -6.010492 -0.023275
v 21.544979 -6.010492 -0.063478
v 21.463118 -3.873719 -0.063478
v 21.463118 -3.873719 -0.023275
v 21.463118 -6.010492 -0.023275
v 22.306293 -6.010492 -0.063478
v 22.306293 -6.010492 -0.023275
v 22.306293 -3.873719 -0.023275
v 22.306293 -3.873719 -0.063478
v 22.388391 -3.873719 -0.023275
v 22.388391 -3.873719 -0.063478
v 22.388391 -6.010492 -0.023275
v 21.545174 -6.010500 -0.004894
v 22.306105 -6.010500 -0.004894
v 22.306105 -5.888040 -0.004894
v 21.545174 -5.888040 -0.004894
v 22.306105 -5.888040 -0.048587
v 21.545174 -5.888040 -0.048587
v 21.545174 -6.010500 -0.048587
v 22.306105 -6.010500 -0.048587
v 21.545174 -3.983992 -0.016289
v 22.306105 -3.983992 -0.016289
v 22.306105 -3.873455 -0.016289
v 21.545174 -3.873455 -0.016289
v 22.306105 -3.873455 -0.059982
v 21.545174 -3.873455 -0.059982
v 21.545174 -3.983992 -0.059982
v 22.306105 -3.983992 -0.059982
v 21.909927 -5.970433 -0.059245
v 21.938942 -5.970433 -0.059245
v 21.938942 -5.970433 -0.022673
v 21.909927 -5.970433 -0.022673
v 21.909294 -5.929890 -0.063478
v 21.909294 -6.010144 -0.016677
v 21.909288 -3.875131 -0.016677
v 21.909288 -3.954322 -0.063478
v 21.958426 -6.010144 -0.016677
v 21.958433 -3.875131 -0.016677
v 21.473373 -4.770661 0.016443
v 22.355762 -4.770661 0.016443
v 22.355762 -4.722133 0.016443
v 21.473373 -4.722133 0.016443
v 22.355762 -4.722133 -0.069858
v 21.473373 -4.722133 -0.069858
v 21.473373 -4.770661 -0.069858
v 22.355762 -4.770661 -0.069858
vt 0.000000 0.000000
vt 0.000000 0.000000
vt 0.000000 0.000000
vt 0.000000 0.000000
vt 0.000000 0.000000
vt 0.000000 0.000000
vt 0.000000 0.000000
vt 0.000000 0.000000
vt 0.000000 0.000000
vt 0.000000 0.000000
vt 0.000000 0.000000
vt 0.000000 0.000000
vt 0.000000 0.000000
vt 0.000000 0.000000
vt 0.000000 0.000000
vt 0.000000 0.000000
vt 0.000000 0.000000
vt 0.000000 0.000000
vt 0.000000 0.000000
vt 0.000000 0.000000
vt 0.000000 0.000000
vt 0.000000 0.000000
vt 0.000000 0.000000
vt 0.000000 0.000000
vt 0.000000 0.000000
vt 0.000000 0.000000
vt 0.000000 0.000000
vt 0.000000 0.000000
vt 0.000000 0.000000
vt 0.000000 0.000000
vt 0.000000 0.000000
vt 0.000000 0.000000
vt 0.000000 0.000000
vt 0.000000 0.000000
vt 0.000000 0.000000
vt 0.000000 0.000000
vt 0.000000 0.000000
vt 0.000000 0.000000
vt 0.000000 0.000000
vt 0.000000 0.000000
vt 0.000000 0.000000
vt 0.000000 0.000000
vt 0.000000 0.000000
vt 0.000000 0.000000
vt 0.000000 0.000000
vt 0.000000 0.000000
vt 0.000000 0.000000
vt 0.000000 0.000000
vt 0.000000 0.000000
vt 0.000000 0.000000
vt 0.000000 0.000000
vt 0.000000 0.000000
vt 0.000000 0.000000
vt 0.000000 0.000000
vt 0.000000 0.000000
vt 0.000000 0.000000
vt 0.000000 0.000000
vt 0.000000 0.000000
vt 0.000000 0.000000
vt 0.000000 0.000000
vt 0.000000 0.000000
vt 0.000000 0.000000
vt 0.000000 0.000000
vt 0.000000 0.000000
vt 0.000000 0.000000
vt 0.000000 0.000000
vt 0.000000 0.000000
vt 0.000000 0.000000
vt 0.000000 0.000000
vt 0.000000 0.000000
vt 0.000000 0.000000
vt 0.000000 0.000000
vt 0.000000 0.000000
vt 0.000000 0.000000
vt 0.000000 0.000000
vt 0.000000 0.000000
vt 0.000000 0.000000
vt 0.000000 0.000000
vt 0.000000 0.000000
vt 0.000000 0.000000
vt 0.000000 0.000000
vt 0.000000 0.000000
vt 0.000000 0.000000
vt 0.000000 0.000000
vt 0.000000 0.000000
vt 0.000000 0.000000
vt 0.000000 0.000000
vt 0.000000 0.000000
vt 0.000000 0.000000
vt 0.000000 0.000000
vt 0.000000 0.000000
vt 0.000000 0.000000
vt 0.000000 0.000000
vt 0.000000 0.000000
vt 0.000000 0.000000
vt 0.000000 0.000000
vt 0.000000 0.000000
vt 0.000000 0.000000
vt 0.000000 0.000000
vt 0.000000 0.000000
vt 0.000000 0.000000
vt 0.000000 0.000000
vt 0.000000 0.000000
vt 0.000000 0.000000
vt 0.000000 0.000000
vt 0.000000 0.000000
vt 0.000000 0.000000
vt 0.000000 0.000000
vt 0.000000 0.000000
vt 0.000000 0.000000
vt 0.000000 0.000000
vt 0.000000 0.000000
vt 0.000000 0.000000
vt 0.000000 0.000000
vt 0.000000 0.000000
vt 0.000000 0.000000
vt 0.000000 0.000000
vt 0.000000 0.000000
vt 0.000000 0.000000
vt 0.000000 0.000000
vt 0.000000 0.000000
vt 0.000000 0.000000
vt 0.000000 0.000000
vt 0.000000 0.000000
vt 0.000000 0.000000
vt 0.000000 0.000000
vt 0.000000 0.000000
vt 0.000000 0.000000
vt 0.000000 0.000000
vt 0.000000 0.000000
vt 0.000000 0.000000
vt 0.000000 0.000000
vt 0.000000 0.000000
vt 0.000000 0.000000
vt 0.000000 0.000000
vt 0.000000 0.000000
vt 0.000000 0.000000
vt 0.000000 0.000000
vt 0.000000 0.000000
vt 0.000000 0.000000
vn 0.000000 -1.000000 0.000000
vn 0.000000 -1.000000 0.000000
vn 0.000000 -1.000000 0.000000
vn 0.000000 -1.000000 0.000000
vn 0.000000 -1.000000 0.000000
vn 0.000000 -1.000000 0.000000
vn 0.000000 -1.000000 0.000000
vn 0.000000 -1.000000 0.000000
vn 1.000000 0.000000 0.000000
vn 1.000000 0.000000 0.000000
vn 1.000000 0.000000 0.000000
vn 1.000000 0.000000 0.000000
vn 0.000000 1.000000 0.000001
vn 0.000000 1.000000 0.000001
vn 0.000000 1.000000 0.000001
vn 0.000000 1.000000 0.000001
vn 0.000000 0.000000 1.000000
vn 0.000000 0.000000 1.000000
vn 0.000000 0.000000 1.000000
vn 0.000000 0.000000 1.000000
vn -1.000000 0.000000 0.000000
vn -1.000000 0.000000 0.000000
vn -1.000000 0.000000 0.000000
vn -1.000000 0.000000 0.000000
vn 0.000000 1.000000 -0.000001
vn 0.000000 1.000000 -0.000001
vn 0.000000 1.000000 -0.000001
vn 0.000000 1.000000 -0.000001
vn 0.000000 0.000000 1.000000
vn 0.000000 0.000000 1.000000
vn 0.000000 0.000000 1.000000
vn 0.000000 0.000000 1.000000
vn 0.000000 0.000000 1.000000
vn 0.000000 0.000000 1.000000
vn 0.000000 0.000000 1.000000
vn 0.000000 0.000000 1.000000
vn 0.000000 1.000000 0.000000
vn 0.000000 1.000000 0.000000
vn 0.000000 1.000000 0.000000
vn 0.000000 1.000000 0.000000
vn 0.000000 -1.000000 0.000000
vn 0.000000 -1.000000 0.000000
vn 0.000000 -1.000000 0.000000
vn 0.000000 -1.000000 0.000000
vn 1.000000 0.000000 0.000000
vn 1.000000 0.000000 0.000000
vn 1.000000 0.000000 0.000000
vn 1.000000 0.000000 0.000000
vn -1.000000 0.000000 0.000000
vn -1.000000 0.000000 0.000000
vn -1.000000 0.000000 0.000000
vn -1.000000 0.000000 0.000000
vn 0.000000 0.000000 1.000000
vn 0.000000 0.000000 1.000000
vn 0.000000 0.000000 1.000000
vn 0.000000 0.000000 1.000000
vn 0.000000 1.000000 -0.000001
vn 0.000000 1.000000 -0.000001
vn 0.000000 1.000000 -0.000001
vn 0.000000 1.000000 -0.000001
vn 0.000000 -1.000000 0.000000
vn 0.000000 -1.000000 0.000000
vn 0.000000 -1.000000 0.000000
vn 0.000000 -1.000000 0.000000
vn 1.000000 0.000000 0.000000
vn 1.000000 0.000000 0.000000
vn 1.000000 0.000000 0.000000
vn 1.000000 0.000000 0.000000
vn -1.000000 0.000000 0.000000
vn -1.000000 0.000000 0.000000
vn -1.000000 0.000000 0.000000
vn -1.000000 0.000000 0.000000
vn 0.000000 -1.000000 0.000001
vn 0.000000 -1.000000 0.000001
vn 0.000000 -1.000000 0.000001
vn 0.000000 -1.000000 0.000001
vn 0.000000 -1.000000 0.000000
vn 0.000000 -1.000000 0.000000
vn 0.000000 -1.000000 0.000000
vn 0.000000 -1.000000 0.000000
vn 1.000000 0.000000 0.000000
vn 1.000000 0.000000 0.000000
vn 1.000000 0.000000 0.000000
vn 1.000000 0.000000 0.000000
vn 0.000000 1.000000 0.000001
vn 0.000000 1.000000 0.000001
vn 0.000000 1.000000 0.000001
vn 0.000000 1.000000 0.000001
vn 0.000000 0.000000 1.000000
vn 0.000000 0.000000 1.000000
vn 0.000000 0.000000 1.000000
vn 0.000000 0.000000 1.000000
vn -1.000000 0.000000 0.000000
vn -1.000000 0.000000 0.000000
vn -1.000000 0.000000 0.000000
vn -1.000000 0.000000 0.000000
vn 0.000000 1.000000 -0.000001
vn 0.000000 1.000000 -0.000001
vn 0.000000 1.000000 -0.000001
vn 0.000000 1.000000 -0.000001
vn 0.000000 0.000000 1.000000
vn 0.000000 0.000000 1.000000
vn 0.000000 0.000000 1.000000
vn 0.000000 0.000000 1.000000
vn 0.000000 0.000000 1.000000
vn 0.000000 0.000000 1.000000
vn 0.000000 0.000000 1.000000
vn 0.000000 0.000000 1.000000
vn 0.000000 1.000000 0.000000
vn 0.000000 1.000000 0.000000
vn 0.000000 1.000000 0.000000
vn 0.000000 1.000000 0.000000
vn 0.000000 -1.000000 0.000000
vn 0.000000 -1.000000 0.000000
vn 0.000000 -1.000000 0.000000
vn 0.000000 -1.000000 0.000000
vn 1.000000 0.000000 0.000000
vn 1.000000 0.000000 0.000000
vn 1.000000 0.000000 0.000000
vn 1.000000 0.000000 0.000000
vn -1.000000 0.000000 0.000000
vn -1.000000 0.000000 0.000000
vn -1.000000 0.000000 0.000000
vn -1.000000 0.000000 0.000000
vn 0.000000 0.000000 1.000000
vn 0.000000 0.000000 1.000000
vn 0.000000 0.000000 1.000000
vn 0.000000 0.000000 1.000000
vn 0.000000 1.000000 -0.000001
vn 0.000000 1.000000 -0.000001
vn 0.000000 1.000000 -0.000001
vn 0.000000 1.000000 -0.000001
vn 0.000000 -1.000000 0.000000
vn 0.000000 -1.000000 0.000000
vn 0.000000 -1.000000 0.000000
vn 0.000000 -1.000000 0.000000
vn 1.000000 0.000000 0.000000
vn 1.000000 0.000000 0.000000
vn 1.000000 0.000000 0.000000
vn 1.000000 0.000000 0.000000
vn -1.000000 0.000000 0.000000
vn -1.000000 0.000000 0.000000
vn -1.000000 0.000000 0.000000
vn -1.000000 0.000000 0.000000
vn 0.000000 -1.000000 0.000000
vn 0.000000 -1.000000 0.000000
vn 0.000000 -1.000000 0.000000
vn 0.000000 -1.000000 0.000000
vn -1.000000 0.000000 0.000000
vn -1.000000 0.000000 0.000000
vn -1.000000 0.000000 0.000000
vn -1.000000 0.000000 0.000000
vn 0.000000 0.000000 1.000000
vn 0.000000 0.000000 1.000000
vn 0.000000 0.000000 1.000000
vn 0.000000 0.000000 1.000000
vn 0.000000 0.000000 1.000000
vn 0.000000 0.000000 1.000000
vn 0.000000 0.000000 1.000000
vn 0.000000 0.000000 1.000000
vn 0.000000 1.000000 -0.000001
vn 0.000000 1.000000 -0.000001
vn 0.000000 1.000000 -0.000001
vn 0.000000 1.000000 -0.000001
vn 0.000000 -1.000000 0.000000
vn 0.000000 -1.000000 0.000000
vn 0.000000 -1.000000 0.000000
vn 0.000000 -1.000000 0.000000
vn -1.000000 0.000000 0.000000
vn -1.000000 0.000000 0.000000
vn -1.000000 0.000000 0.000000
vn -1.000000 0.000000 0.000000
g polySurface32
f 5/5/5 6/6/6 7/7/7 8/8/8
f 9/9/9 10/10/10 11/11/11 12/12/12
f 13/13/13 14/14/14 15/15/15 16/16/16
f 14/17/17 13/18/18 17/19/19 18/20/20
f 19/21/21 15/22/22 14/23/23 18/20/24
f 20/24/25 21/25/26 22/26/27 23/27/28
f 23/28/29 22/29/30 24/30/31 25/31/32
f 21/32/33 26/33/34 24/30/35 22/34/36
f 27/35/37 28/36/38 29/37/39 30/38/40
f 30/38/41 29/37/42 31/39/43 32/40/44
f 33/41/45 34/42/46 28/43/47 27/44/48
f 28/36/49 34/45/50 31/46/51 29/37/52
f 33/47/53 27/35/54 30/38/55 32/48/56
f 35/49/57 36/50/58 37/51/59 38/52/60
f 38/52/61 37/51/62 39/53/63 40/54/64
f 41/55/65 42/56/66 36/57/67 35/58/68
f 36/50/69 42/59/70 39/60/71 37/51/72
f 41/61/73 35/49/74 38/52/75 40/62/76
f 43/63/77 44/64/78 45/65/79 46/66/80
f 47/67/81 48/68/82 49/69/83 50/70/84
f 51/71/85 52/72/86 53/73/87 54/74/88
f 52/75/89 51/76/90 55/77/91 56/78/92
f 57/79/93 53/80/94 52/81/95 56/78/96
f 58/82/97 59/83/98 60/84/99 61/85/100
f 61/86/101 60/87/102 62/88/103 63/89/104
f 59/90/105 64/91/106 62/88/107 60/92/108
f 65/93/109 66/94/110 67/95/111 68/96/112
f 68/96/113 67/95/114 69/97/115 70/98/116
f 71/99/117 72/100/118 66/101/119 65/102/120
f 66/94/121 72/103/122 69/104/123 67/95/124
f 71/105/125 65/93/126 68/96/127 70/106/128
f 73/107/129 74/108/130 75/109/131 76/110/132
f 76/110/133 75/109/134 77/111/135 78/112/136
f 79/113/137 80/114/138 74/115/139 73/116/140
f 74/108/141 80/117/142 77/118/143 75/109/144
f 79/119/145 73/107/146 76/110/147 78/120/148
f 81/121/149 82/122/150 83/123/151 84/124/152
f 85/125/153 86/126/154 87/127/155 88/128/156
f 86/129/157 89/130/158 90/131/159 87/132/160
f 91/133/161 92/134/162 93/135/163 94/136/164
f 94/136/165 93/135/166 95/137/167 96/138/168
f 97/139/169 98/140/170 92/141/171 91/142/172
f 97/143/173 91/133/174 94/136/175 96/144/176
