# This file uses centimeters as units for non-parametric coordinates.

v 3.613164 26.278467 0.338682
v 3.428178 26.278467 0.369373
v 3.603701 26.189657 0.338601
v 3.428215 26.183800 0.369492
v 3.577090 25.849630 0.147975
v 3.428347 25.847900 0.178573
v 3.567949 25.725000 0.138682
v 3.428395 25.725000 0.169373
v 3.585894 25.966089 0.175384
v 3.428302 25.962500 0.205546
v 3.428263 26.060900 0.248454
v 3.593703 26.066610 0.219211
v 3.428233 26.136400 0.304373
v 3.599897 26.144545 0.276923
v 3.428419 25.665001 0.169373
v 3.284751 25.665001 0.150000
v 3.428419 25.665001 0.095704
v 3.284751 25.665001 0.095704
v 3.587819 25.680201 0.174000
v 3.428413 25.680201 0.193373
v 3.575218 25.665001 0.150000
v 3.590383 25.710800 0.174000
v 3.428400 25.710800 0.193373
v 3.586896 25.714317 0.168054
v 3.650985 26.344269 0.371000
v 3.428152 26.344269 0.390373
v 3.646020 26.293669 0.371000
v 3.428172 26.293669 0.390373
v 3.576224 25.725000 0.095704
v 3.624151 26.278467 0.095704
v 3.235817 26.278467 0.095704
v 3.283745 25.725000 0.095704
v 3.282879 25.849630 0.147975
v 3.292020 25.725000 0.138682
v 3.274075 25.966089 0.175384
v 3.266265 26.066607 0.219211
v 3.260071 26.144545 0.276923
v 3.256268 26.189657 0.338601
v 3.246804 26.278467 0.338682
v 3.587819 25.680201 0.095704
v 3.575218 25.665001 0.095704
v 3.272149 25.680201 0.174000
v 3.272149 25.680201 0.095704
v 3.590383 25.710800 0.095704
v 3.269585 25.710800 0.174000
v 3.269585 25.710800 0.095704
v 3.646020 26.293669 0.095704
v 3.641340 26.290432 0.366530
v 3.213949 26.293669 0.371000
v 3.213949 26.293669 0.095704
v 3.218629 26.290432 0.366530
v 3.650985 26.344269 0.095704
v 3.208984 26.344269 0.371000
v 3.208984 26.344269 0.095704
v 3.273073 25.714317 0.168054
vn 0.265815 -0.024124 0.963722
vn -0.001270 -0.004584 0.999989
vn 0.265815 -0.024124 0.963722
vn 0.265815 -0.024124 0.963722
vn -0.001270 -0.004584 0.999989
vn -0.001270 -0.004584 0.999989
vn 0.308432 -0.164129 0.936980
vn -0.001680 -0.157113 0.987579
vn 0.316606 -0.090383 0.944241
vn 0.316606 -0.090383 0.944241
vn -0.001680 -0.157113 0.987579
vn -0.001771 -0.079585 0.996827
vn 0.290735 -0.319286 0.901959
vn -0.001484 -0.319803 0.947483
vn 0.308432 -0.164129 0.936980
vn 0.308432 -0.164129 0.936980
vn -0.001484 -0.319803 0.947483
vn -0.001680 -0.157113 0.987579
vn -0.001264 -0.503737 0.863856
vn -0.001484 -0.319803 0.947483
vn 0.273466 -0.495453 0.824465
vn 0.273466 -0.495453 0.824465
vn -0.001484 -0.319803 0.947483
vn 0.290735 -0.319286 0.901959
vn -0.000979 -0.711756 0.702426
vn -0.001264 -0.503737 0.863856
vn 0.257089 -0.694764 0.671721
vn 0.257089 -0.694764 0.671721
vn -0.001264 -0.503737 0.863856
vn 0.273466 -0.495453 0.824465
vn -0.000800 -0.809413 0.587240
vn -0.000979 -0.711756 0.702426
vn 0.245812 -0.789322 0.562625
vn 0.245812 -0.789322 0.562625
vn -0.000979 -0.711756 0.702426
vn 0.257089 -0.694764 0.671721
vn 0.000000 -1.000000 0.000001
vn 0.000000 -1.000000 -0.000006
vn 0.000000 -1.000000 0.000001
vn 0.000000 -1.000000 0.000001
vn 0.000000 -1.000000 -0.000006
vn 0.000000 -1.000000 -0.000006
vn 0.065984 -0.850726 0.521451
vn -0.000672 -0.852671 0.522448
vn 0.065984 -0.850726 0.521451
vn 0.065984 -0.850726 0.521451
vn -0.000672 -0.852671 0.522448
vn -0.000672 -0.852671 0.522448
vn 0.119682 -0.004990 0.992800
vn -0.001197 -0.005101 0.999986
vn 0.119682 -0.004990 0.992800
vn 0.119682 -0.004990 0.992800
vn -0.001197 -0.005101 0.999986
vn -0.001197 -0.005101 0.999986
vn -0.000647 0.884813 0.465945
vn -0.000613 0.863776 0.503875
vn 0.375388 0.895610 0.238677
vn 0.375388 0.895610 0.238677
vn -0.000613 0.863776 0.503875
vn 0.061211 0.862153 0.502937
vn 0.375388 0.895610 0.238677
vn 0.114240 0.926324 0.358988
vn -0.000647 0.884813 0.465945
vn 0.087581 -0.004280 0.996148
vn -0.000734 -0.004350 0.999990
vn 0.087581 -0.004280 0.996148
vn 0.087581 -0.004280 0.996148
vn -0.000734 -0.004350 0.999990
vn -0.000734 -0.004350 0.999990
vn 0.982486 -0.090602 0.162829
vn 0.996054 -0.084951 0.025697
vn 0.980723 -0.103928 0.165471
vn 0.980723 -0.103928 0.165471
vn 0.996054 -0.084951 0.025697
vn 0.995611 -0.092070 0.016814
vn 0.980723 -0.103928 0.165471
vn 0.995611 -0.092070 0.016814
vn 0.977440 -0.133229 0.163891
vn 0.977440 -0.133229 0.163891
vn 0.995611 -0.092070 0.016814
vn 0.974125 -0.167994 0.151190
vn 0.974125 -0.167994 0.151190
vn 0.995611 -0.092070 0.016814
vn 0.970220 -0.209353 0.121837
vn 0.995611 -0.092070 0.016814
vn 0.977976 -0.107718 0.178772
vn 0.970220 -0.209353 0.121837
vn 0.970220 -0.209353 0.121837
vn 0.977976 -0.107718 0.178772
vn 0.963946 -0.190470 0.185822
vn -0.995611 -0.092071 0.016811
vn -0.996054 -0.084952 0.025685
vn -0.980723 -0.103930 0.165471
vn -0.980723 -0.103930 0.165471
vn -0.996054 -0.084952 0.025685
vn -0.982486 -0.090604 0.162824
vn -0.980723 -0.103930 0.165471
vn -0.977439 -0.133231 0.163895
vn -0.995611 -0.092071 0.016811
vn -0.977439 -0.133231 0.163895
vn -0.974124 -0.167997 0.151195
vn -0.995611 -0.092071 0.016811
vn -0.974124 -0.167997 0.151195
vn -0.970219 -0.209355 0.121839
vn -0.995611 -0.092071 0.016811
vn -0.963945 -0.190468 0.185827
vn -0.977975 -0.107719 0.178780
vn -0.970219 -0.209355 0.121839
vn -0.970219 -0.209355 0.121839
vn -0.977975 -0.107719 0.178780
vn -0.995611 -0.092071 0.016811
vn 0.769851 -0.638223 -0.000008
vn 0.769851 -0.638223 -0.000008
vn 0.769851 -0.638223 -0.000008
vn 0.769851 -0.638223 -0.000008
vn 0.769851 -0.638223 -0.000008
vn 0.769851 -0.638223 -0.000008
vn -0.769837 -0.638240 -0.000003
vn -0.769837 -0.638240 -0.000003
vn -0.769837 -0.638240 -0.000003
vn -0.769837 -0.638240 -0.000003
vn -0.769837 -0.638240 -0.000003
vn -0.769837 -0.638240 -0.000003
vn 0.996508 -0.083499 0.000000
vn 0.996508 -0.083499 0.000000
vn 0.996508 -0.083499 0.000000
vn 0.996508 -0.083499 0.000000
vn 0.996508 -0.083499 0.000000
vn 0.996508 -0.083499 0.000000
vn -0.996508 -0.083496 0.000000
vn -0.996508 -0.083496 0.000000
vn -0.996508 -0.083496 0.000000
vn -0.996508 -0.083496 0.000000
vn -0.996508 -0.083496 0.000000
vn -0.996508 -0.083496 0.000000
vn 0.708572 0.705639 -0.000151
vn 0.708572 0.705639 -0.000151
vn 0.375388 0.895610 0.238677
vn 0.375388 0.895610 0.238677
vn 0.708572 0.705639 -0.000151
vn 0.708027 0.706186 -0.000079
vn 0.708027 0.706186 -0.000079
vn 0.565477 0.822426 0.062055
vn 0.375388 0.895610 0.238677
vn 0.570981 -0.820963 0.000032
vn 0.569915 -0.821704 0.000018
vn 0.453510 -0.888783 0.066287
vn 0.453510 -0.888783 0.066287
vn 0.569915 -0.821704 0.000018
vn 0.301102 -0.915287 0.267559
vn 0.568848 -0.822443 0.000003
vn 0.301102 -0.915287 0.267559
vn 0.569915 -0.821704 0.000018
vn -0.570439 -0.821340 0.000038
vn -0.570439 -0.821340 0.000038
vn -0.301755 -0.915176 0.267201
vn -0.301755 -0.915176 0.267201
vn -0.570439 -0.821340 0.000038
vn -0.570873 -0.821039 0.000020
vn -0.570873 -0.821039 0.000020
vn -0.453693 -0.888693 0.066231
vn -0.301755 -0.915176 0.267201
vn 0.995221 -0.097651 0.000000
vn 0.995221 -0.097651 0.000000
vn 0.995221 -0.097651 0.000000
vn 0.995221 -0.097651 0.000000
vn 0.995221 -0.097651 0.000000
vn 0.995221 -0.097651 0.000000
vn -0.995221 -0.097650 0.000000
vn -0.995221 -0.097650 0.000000
vn -0.995221 -0.097650 0.000000
vn -0.995221 -0.097650 0.000000
vn -0.995221 -0.097650 0.000000
vn -0.995221 -0.097650 0.000000
vn 0.052439 -0.813465 0.579245
vn -0.000446 -0.814637 0.579970
vn 0.301102 -0.915287 0.267559
vn 0.301102 -0.915287 0.267559
vn -0.000446 -0.814637 0.579970
vn -0.000470 -0.845168 0.534501
vn 0.096977 -0.908271 0.406987
vn 0.301102 -0.915287 0.267559
vn -0.000470 -0.845168 0.534501
vn -0.708009 0.706203 -0.000083
vn -0.708556 0.705655 -0.000161
vn -0.375762 0.895548 0.238320
vn -0.375762 0.895548 0.238320
vn -0.708556 0.705655 -0.000161
vn -0.708556 0.705655 -0.000161
vn -0.375762 0.895548 0.238320
vn -0.565465 0.822432 0.062080
vn -0.708009 0.706203 -0.000083
vn -0.267036 -0.024205 0.963382
vn -0.267036 -0.024205 0.963382
vn -0.001270 -0.004584 0.999989
vn -0.001270 -0.004584 0.999989
vn -0.267036 -0.024205 0.963382
vn -0.001270 -0.004584 0.999989
vn -0.310029 -0.164128 0.936453
vn -0.318288 -0.090423 0.943672
vn -0.001680 -0.157113 0.987579
vn -0.001680 -0.157113 0.987579
vn -0.318288 -0.090423 0.943672
vn -0.001771 -0.079585 0.996827
vn -0.292153 -0.319216 0.901525
vn -0.310029 -0.164128 0.936453
vn -0.001484 -0.319803 0.947483
vn -0.001484 -0.319803 0.947483
vn -0.310029 -0.164128 0.936453
vn -0.001680 -0.157113 0.987579
vn -0.001264 -0.503737 0.863856
vn -0.274682 -0.495329 0.824136
vn -0.001484 -0.319803 0.947483
vn -0.001484 -0.319803 0.947483
vn -0.274682 -0.495329 0.824136
vn -0.292153 -0.319216 0.901525
vn -0.000979 -0.711756 0.702426
vn -0.258030 -0.694610 0.671518
vn -0.001264 -0.503737 0.863856
vn -0.001264 -0.503737 0.863856
vn -0.258030 -0.694610 0.671518
vn -0.274682 -0.495329 0.824136
vn -0.000800 -0.809413 0.587240
vn -0.246579 -0.789175 0.562496
vn -0.000979 -0.711756 0.702426
vn -0.000979 -0.711756 0.702426
vn -0.246579 -0.789175 0.562496
vn -0.258030 -0.694610 0.671518
vn 0.000000 -1.000000 0.000001
vn 0.000000 -1.000000 0.000001
vn 0.000000 -1.000000 0.000008
vn 0.000000 -1.000000 0.000008
vn 0.000000 -1.000000 0.000001
vn 0.000000 -1.000000 0.000008
vn -0.067324 -0.850823 0.521122
vn -0.067324 -0.850823 0.521122
vn -0.000672 -0.852671 0.522448
vn -0.000672 -0.852671 0.522448
vn -0.067324 -0.850823 0.521122
vn -0.000672 -0.852671 0.522448
vn -0.122059 -0.005138 0.992510
vn -0.122059 -0.005138 0.992510
vn -0.001197 -0.005101 0.999986
vn -0.001197 -0.005101 0.999986
vn -0.122059 -0.005138 0.992510
vn -0.001197 -0.005101 0.999986
vn -0.062436 0.862096 0.502885
vn -0.000613 0.863776 0.503875
vn -0.375762 0.895548 0.238320
vn -0.375762 0.895548 0.238320
vn -0.000613 0.863776 0.503875
vn -0.000647 0.884813 0.465945
vn -0.000647 0.884813 0.465945
vn -0.114908 0.926590 0.358089
vn -0.375762 0.895548 0.238320
vn -0.089043 -0.004386 0.996018
vn -0.089043 -0.004386 0.996018
vn -0.000734 -0.004350 0.999990
vn -0.000734 -0.004350 0.999990
vn -0.089043 -0.004386 0.996018
vn -0.000734 -0.004350 0.999990
vn -0.000470 -0.845168 0.534501
vn -0.000446 -0.814637 0.579970
vn -0.301755 -0.915176 0.267201
vn -0.301755 -0.915176 0.267201
vn -0.000446 -0.814637 0.579970
vn -0.053329 -0.813530 0.579073
vn -0.000470 -0.845168 0.534501
vn -0.301755 -0.915176 0.267201
vn -0.097457 -0.908623 0.406088
vn 0.000000 1.000000 0.000000
vn 0.000000 1.000000 0.000000
vn 0.000000 1.000000 0.000000
vn 0.000000 1.000000 0.000000
vn 0.000000 1.000000 0.000000
vn 0.000000 1.000000 0.000000
vn 0.000000 1.000000 0.000000
vn 0.000000 1.000000 0.000000
vn 0.000000 1.000000 0.000000
g ledge_modillion:ledge_cornice_2
f 1//1 2//2 3//3
f 3//4 2//5 4//6
f 5//7 6//8 7//9
f 7//10 6//11 8//12
f 9//13 10//14 5//15
f 5//16 10//17 6//18
f 11//19 10//20 12//21
f 12//22 10//23 9//24
f 13//25 11//26 14//27
f 14//28 11//29 12//30
f 4//31 13//32 3//33
f 3//34 13//35 14//36
f 15//37 16//38 17//39
f 17//40 16//41 18//42
f 19//43 20//44 21//45
f 21//46 20//47 15//48
f 22//49 23//50 19//51
f 19//52 23//53 20//54
f 8//55 23//56 24//57
f 24//58 23//59 22//60
f 24//61 7//62 8//63
f 25//64 26//65 27//66
f 27//67 26//68 28//69
f 7//70 29//71 5//72
f 5//73 29//74 30//75
f 5//76 30//77 9//78
f 9//79 30//80 12//81
f 12//82 30//83 14//84
f 30//85 1//86 14//87
f 14//88 1//89 3//90
f 31//91 32//92 33//93
f 33//94 32//95 34//96
f 33//97 35//98 31//99
f 35//100 36//101 31//102
f 36//103 37//104 31//105
f 38//106 39//107 37//108
f 37//109 39//110 31//111
f 19//112 21//113 40//114
f 40//115 21//116 41//117
f 42//118 43//119 16//120
f 16//121 43//122 18//123
f 19//124 40//125 22//126
f 22//127 40//128 44//129
f 42//130 45//131 43//132
f 43//133 45//134 46//135
f 22//136 44//137 24//138
f 24//139 44//140 29//141
f 29//142 7//143 24//144
f 30//145 47//146 1//147
f 1//148 47//149 48//150
f 27//151 48//152 47//153
f 49//154 50//155 51//156
f 51//157 50//158 31//159
f 31//160 39//161 51//162
f 27//163 47//164 25//165
f 25//166 47//167 52//168
f 49//169 53//170 50//171
f 50//172 53//173 54//174
f 27//175 28//176 48//177
f 48//178 28//179 2//180
f 1//181 48//182 2//183
f 32//184 46//185 55//186
f 55//187 46//188 45//189
f 55//190 34//191 32//192
f 39//193 38//194 2//195
f 2//196 38//197 4//198
f 33//199 34//200 6//201
f 6//202 34//203 8//204
f 35//205 33//206 10//207
f 10//208 33//209 6//210
f 11//211 36//212 10//213
f 10//214 36//215 35//216
f 13//217 37//218 11//219
f 11//220 37//221 36//222
f 4//223 38//224 13//225
f 13//226 38//227 37//228
f 15//229 17//230 21//231
f 21//232 17//233 41//234
f 42//235 16//236 20//237
f 20//238 16//239 15//240
f 45//241 42//242 23//243
f 23//244 42//245 20//246
f 45//247 23//248 55//249
f 55//250 23//251 8//252
f 8//253 34//254 55//255
f 53//256 49//257 26//258
f 26//259 49//260 28//261
f 2//262 28//263 51//264
f 51//265 28//266 49//267
f 2//268 51//269 39//270
f 54//271 53//272 52//273
f 53//274 26//275 52//276
f 26//277 25//278 52//279
